<svg xmlns="http://www.w3.org/2000/svg" viewBox="0 0 461.56 293.32"><defs><style>.cls-1{fill:#839ff2;}.cls-2{fill:#3e579e;}.cls-3{fill:#486bd4;}.cls-4{fill:#ffcf80;}.cls-5{fill:#f56c7c;}.cls-6{fill:#7a9cff;}.cls-7{fill:#fff;}.cls-8{fill:#4973ed;}.cls-9{fill:#c43d4d;}.cls-10{fill:#faebd6;}.cls-11{fill:#97dade;}.cls-12{fill:#ffc057;}</style></defs><g id="Layer_2" data-name="Layer 2"><g id="bg"><rect class="cls-1" width="461.56" height="293.32" rx="11.6"/><rect class="cls-2" x="17.42" y="17.16" width="426.86" height="260.18" rx="11.81"/><path class="cls-3" d="M29.13,17.16H48.95a0,0,0,0,1,0,0V277.34a0,0,0,0,1,0,0H29a11.63,11.63,0,0,1-11.63-11.63V28.87A11.71,11.71,0,0,1,29.13,17.16Z"/><rect class="cls-3" x="48.95" y="49.44" width="395.33" height="1"/><rect class="cls-3" x="171.53" y="49.94" width="1" height="227.39"/><rect class="cls-3" x="313.44" y="49.94" width="1" height="227.39"/><circle class="cls-4" cx="25.47" cy="30.65" r="2.14"/><circle class="cls-1" cx="33.18" cy="30.65" r="2.14"/><path class="cls-5" d="M43,30.65A2.15,2.15,0,1,1,40.9,28.5,2.14,2.14,0,0,1,43,30.65Z"/><path class="cls-6" d="M43.91,56.83H23.36a1.94,1.94,0,0,1-1.94-1.94h0A1.94,1.94,0,0,1,23.36,53H43.91a1.94,1.94,0,0,1,1.94,1.94h0A1.94,1.94,0,0,1,43.91,56.83Z"/><path class="cls-6" d="M43.91,64.57H23.36a1.94,1.94,0,0,1-1.94-1.94h0a1.94,1.94,0,0,1,1.94-1.94H43.91a1.94,1.94,0,0,1,1.94,1.94h0A1.94,1.94,0,0,1,43.91,64.57Z"/><path class="cls-6" d="M43.91,93.08H23.36a1.94,1.94,0,0,1-1.94-1.94h0a1.94,1.94,0,0,1,1.94-1.94H43.91a1.94,1.94,0,0,1,1.94,1.94h0A1.94,1.94,0,0,1,43.91,93.08Z"/><path class="cls-6" d="M43.91,130.74H23.36a1.94,1.94,0,0,1-1.94-1.94h0a1.94,1.94,0,0,1,1.94-1.94H43.91a1.94,1.94,0,0,1,1.94,1.94h0A1.94,1.94,0,0,1,43.91,130.74Z"/><path class="cls-6" d="M43.91,152.43H23.36a1.94,1.94,0,0,1-1.94-1.94h0a1.94,1.94,0,0,1,1.94-1.94H43.91a1.94,1.94,0,0,1,1.94,1.94h0A1.94,1.94,0,0,1,43.91,152.43Z"/><path class="cls-6" d="M43.91,145.05H23.36a1.94,1.94,0,0,1-1.94-1.94h0a1.94,1.94,0,0,1,1.94-1.94H43.91a1.94,1.94,0,0,1,1.94,1.94h0A1.94,1.94,0,0,1,43.91,145.05Z"/><rect class="cls-6" x="21.42" y="196.09" width="24.43" height="3.88" rx="1.94"/><path class="cls-6" d="M43.91,206.68H23.36a1.94,1.94,0,0,1-1.94-1.94h0a1.94,1.94,0,0,1,1.94-1.94H43.91a1.94,1.94,0,0,1,1.94,1.94h0A1.94,1.94,0,0,1,43.91,206.68Z"/><path class="cls-6" d="M43.91,238.47H23.36a1.94,1.94,0,0,1-1.94-1.94h0a1.94,1.94,0,0,1,1.94-1.94H43.91a1.94,1.94,0,0,1,1.94,1.94h0A1.94,1.94,0,0,1,43.91,238.47Z"/><rect class="cls-6" x="21.42" y="188.7" width="24.43" height="3.88" rx="1.94"/><path class="cls-7" d="M95.1,29.74H91.19V40.59H89.6V29.74H85.7V28.43h9.4Z"/><path class="cls-7" d="M95.43,36A5.34,5.34,0,0,1,96,33.6,3.84,3.84,0,0,1,97.4,32a3.91,3.91,0,0,1,2.13-.58,3.81,3.81,0,0,1,3,1.28,4.91,4.91,0,0,1,1.14,3.4v.1a5.49,5.49,0,0,1-.5,2.37,3.83,3.83,0,0,1-1.45,1.63,4,4,0,0,1-2.16.59,3.84,3.84,0,0,1-3-1.28,4.93,4.93,0,0,1-1.13-3.38Zm1.55.18a3.85,3.85,0,0,0,.7,2.42,2.23,2.23,0,0,0,1.86.91,2.2,2.2,0,0,0,1.87-.93,4.21,4.21,0,0,0,.7-2.58,3.88,3.88,0,0,0-.71-2.41,2.26,2.26,0,0,0-1.87-.92,2.21,2.21,0,0,0-1.85.91A4.17,4.17,0,0,0,97,36.17Z"/><path class="cls-7" d="M109.44,36a5.3,5.3,0,0,1,1-3.35,3.36,3.36,0,0,1,5.09-.18v-4.7h1.55V40.59h-1.42l-.08-1a3.33,3.33,0,0,1-5.14-.15,5.34,5.34,0,0,1-1-3.35Zm1.55.17a4,4,0,0,0,.63,2.41,2.07,2.07,0,0,0,1.76.87,2.24,2.24,0,0,0,2.14-1.32V34a2.27,2.27,0,0,0-2.13-1.28,2.07,2.07,0,0,0-1.77.88A4.42,4.42,0,0,0,111,36.17Z"/><path class="cls-7" d="M119.06,36a5.34,5.34,0,0,1,.52-2.39A3.84,3.84,0,0,1,121,32a3.91,3.91,0,0,1,2.13-.58,3.81,3.81,0,0,1,3,1.28,4.91,4.91,0,0,1,1.14,3.4v.1a5.35,5.35,0,0,1-.51,2.37,3.75,3.75,0,0,1-1.44,1.63,4,4,0,0,1-2.16.59,3.84,3.84,0,0,1-3-1.28,4.93,4.93,0,0,1-1.13-3.38Zm1.55.18a3.85,3.85,0,0,0,.7,2.42,2.23,2.23,0,0,0,1.86.91,2.2,2.2,0,0,0,1.87-.93,4.21,4.21,0,0,0,.7-2.58,3.88,3.88,0,0,0-.71-2.41,2.26,2.26,0,0,0-1.87-.92,2.21,2.21,0,0,0-1.85.91A4.17,4.17,0,0,0,120.61,36.17Z"/><path class="cls-7" d="M220.54,40.59V28.43H224a5.57,5.57,0,0,1,2.8.7,4.8,4.8,0,0,1,1.89,2,6.56,6.56,0,0,1,.67,3v.78a6.51,6.51,0,0,1-.66,3,4.68,4.68,0,0,1-1.9,2,5.89,5.89,0,0,1-2.87.71Zm1.6-10.85v9.54h1.69a3.67,3.67,0,0,0,2.88-1.15,4.77,4.77,0,0,0,1-3.29v-.71a4.84,4.84,0,0,0-1-3.22A3.48,3.48,0,0,0,224,29.74Z"/><path class="cls-7" d="M231.1,36a5.34,5.34,0,0,1,.52-2.39,3.85,3.85,0,0,1,3.58-2.21,3.81,3.81,0,0,1,3,1.28,4.91,4.91,0,0,1,1.14,3.4v.1a5.35,5.35,0,0,1-.5,2.37,3.83,3.83,0,0,1-1.45,1.63,4,4,0,0,1-2.15.59,3.81,3.81,0,0,1-3-1.28,4.89,4.89,0,0,1-1.14-3.38Zm1.55.18a3.85,3.85,0,0,0,.7,2.42,2.36,2.36,0,0,0,3.74,0,4.21,4.21,0,0,0,.69-2.58,3.88,3.88,0,0,0-.71-2.41,2.35,2.35,0,0,0-3.72,0A4.23,4.23,0,0,0,232.65,36.17Z"/><path class="cls-7" d="M241.27,29.16a.92.92,0,0,1,.23-.63,1,1,0,0,1,1.36,0,.95.95,0,0,1,0,1.26,1,1,0,0,1-1.36,0A.92.92,0,0,1,241.27,29.16Zm1.67,11.43H241.4v-9h1.54Z"/><path class="cls-7" d="M246.87,31.56l0,1.13a3.29,3.29,0,0,1,2.71-1.3q2.87,0,2.89,3.23v6H251v-6a2,2,0,0,0-.45-1.44,1.78,1.78,0,0,0-1.36-.47,2.22,2.22,0,0,0-1.32.4,2.73,2.73,0,0,0-.88,1v6.44h-1.55v-9Z"/><path class="cls-7" d="M254.48,36a5.25,5.25,0,0,1,1-3.36A3.12,3.12,0,0,1,258,31.39a3.09,3.09,0,0,1,2.58,1.17l.08-1h1.41v8.81a3.71,3.71,0,0,1-1,2.77,3.84,3.84,0,0,1-2.79,1,4.61,4.61,0,0,1-1.91-.42,3.3,3.3,0,0,1-1.43-1.14l.8-.93a3,3,0,0,0,2.43,1.23,2.35,2.35,0,0,0,1.76-.64,2.42,2.42,0,0,0,.63-1.78v-.78A3.18,3.18,0,0,1,258,40.76a3.09,3.09,0,0,1-2.57-1.28A5.6,5.6,0,0,1,254.48,36Zm1.55.17a4,4,0,0,0,.63,2.4,2,2,0,0,0,1.75.88,2.28,2.28,0,0,0,2.15-1.33V34a2.3,2.3,0,0,0-2.13-1.29,2,2,0,0,0-1.76.88A4.34,4.34,0,0,0,256,36.17Z"/><path class="cls-7" d="M364,40.59V28.43h3.43a5.57,5.57,0,0,1,2.8.7,4.8,4.8,0,0,1,1.89,2,6.56,6.56,0,0,1,.67,3v.78a6.51,6.51,0,0,1-.66,3,4.68,4.68,0,0,1-1.9,2,5.89,5.89,0,0,1-2.87.71Zm1.6-10.85v9.54h1.69a3.67,3.67,0,0,0,2.88-1.15,4.77,4.77,0,0,0,1-3.29v-.71a4.84,4.84,0,0,0-1-3.22,3.48,3.48,0,0,0-2.76-1.17Z"/><path class="cls-7" d="M374.57,36a5.34,5.34,0,0,1,.52-2.39,3.85,3.85,0,0,1,3.58-2.21,3.81,3.81,0,0,1,3,1.28,4.91,4.91,0,0,1,1.14,3.4v.1a5.35,5.35,0,0,1-.5,2.37,3.83,3.83,0,0,1-1.45,1.63,4,4,0,0,1-2.15.59,3.81,3.81,0,0,1-3-1.28,4.89,4.89,0,0,1-1.14-3.38Zm1.55.18a3.85,3.85,0,0,0,.7,2.42,2.36,2.36,0,0,0,3.74,0,4.21,4.21,0,0,0,.69-2.58,3.88,3.88,0,0,0-.71-2.41,2.35,2.35,0,0,0-3.72,0A4.23,4.23,0,0,0,376.12,36.17Z"/><path class="cls-7" d="M386.19,31.56l.05,1.13a3.29,3.29,0,0,1,2.71-1.3q2.87,0,2.89,3.23v6h-1.55v-6a2.05,2.05,0,0,0-.44-1.44,1.82,1.82,0,0,0-1.37-.47,2.22,2.22,0,0,0-1.32.4,2.73,2.73,0,0,0-.88,1v6.44h-1.55v-9Z"/><path class="cls-7" d="M397.92,40.76a3.91,3.91,0,0,1-3-1.21,4.47,4.47,0,0,1-1.16-3.23V36a5.29,5.29,0,0,1,.52-2.4A4,4,0,0,1,395.72,32a3.63,3.63,0,0,1,2-.6,3.39,3.39,0,0,1,2.74,1.16,5,5,0,0,1,1,3.32v.65h-6.12a3.15,3.15,0,0,0,.78,2.15,2.46,2.46,0,0,0,1.9.83,2.65,2.65,0,0,0,1.39-.34,3.43,3.43,0,0,0,1-.88l.94.73A3.78,3.78,0,0,1,397.92,40.76Zm-.2-8.1a2.09,2.09,0,0,0-1.57.68,3.31,3.31,0,0,0-.78,1.91h4.53v-.12a3,3,0,0,0-.64-1.82A1.92,1.92,0,0,0,397.72,32.66Z"/></g><g id="task"><path class="cls-8" d="M100.05,100.73,59.93,97.4c6-3.47,4.91-31.87,4.91-31.87h35.21Z"/><path class="cls-9" d="M151.07,116.09s-25,5.68-38.85.55V84.45h32.19C146.32,103.87,148.29,110,151.07,116.09Z"/><rect class="cls-7" x="59.93" y="146.52" width="32.2" height="32.2"/><rect class="cls-7" x="271.16" y="91.12" width="32.2" height="32.2" transform="translate(16.77 -37.17) rotate(7.63)"/><path class="cls-10" d="M158.49,208.88s-31.09-1.61-33.92-7.77l6.28-28.42L162.76,177Z"/><rect class="cls-11" x="208.07" y="85.52" width="32.2" height="32.2" transform="translate(-8.68 21.87) rotate(-5.48)"/><rect class="cls-10" x="188.02" y="67.08" width="33.97" height="33.97" transform="translate(12.97 -26.46) rotate(7.63)"/><rect class="cls-11" x="232.83" y="234.72" width="32.2" height="32.2"/><path class="cls-11" d="M388.48,257.26s-16.13,9.93-42.94-.62l2.22-33.38,36.13,2.23S382.28,253.29,388.48,257.26Z"/><rect class="cls-10" x="324.19" y="137.37" width="32.2" height="32.2" transform="translate(-8.13 19.49) rotate(-3.24)"/><rect class="cls-12" x="395.95" y="159.9" width="32.2" height="32.2"/><rect class="cls-7" x="372.38" y="102.93" width="32.2" height="32.2"/><rect class="cls-8" x="261.58" y="218.63" width="34.68" height="34.68" transform="translate(-21.26 27.71) rotate(-5.48)"/><path class="cls-11" d="M362.6,88.81c-15.73,7.51-39.12,4.2-39.12,4.2,4.58-7.4,2.53-34.53,2.53-34.53H358.2Z"/><rect class="cls-12" x="258.41" y="62.26" width="32.2" height="32.2" transform="translate(-6.23 26.57) rotate(-5.48)"/><rect class="cls-9" x="395.95" y="77.95" width="32.2" height="32.2" transform="translate(-7.1 39.78) rotate(-5.48)"/><polygon class="cls-7" points="418.62 101.84 412.61 99.53 407.3 103.16 407.65 96.73 402.55 92.8 408.77 91.15 410.93 85.09 414.43 90.49 420.86 90.68 416.8 95.67 418.62 101.84"/><rect class="cls-12" x="212.89" y="143.12" width="32.2" height="32.2" transform="translate(14.2 -18.69) rotate(4.82)"/><polygon class="cls-7" points="228.16 158.75 223.88 156.13 219.31 158.18 220.47 153.3 217.11 149.58 222.11 149.18 224.61 144.84 226.53 149.46 231.44 150.5 227.63 153.76 228.16 158.75"/><polygon class="cls-7" points="237.26 174.26 232.99 171.65 228.41 173.69 229.57 168.82 226.21 165.1 231.21 164.7 233.71 160.35 235.64 164.98 240.54 166.02 236.73 169.28 237.26 174.26"/><path class="cls-2" d="M194.6,72.53c8,1.73,16.14,2.4,24.12,4.13.47.11.67-.62.2-.72-8-1.73-16.14-2.4-24.12-4.13-.47-.11-.67.62-.2.72Z"/><path class="cls-2" d="M193.06,76c8,1.73,16.14,2.39,24.12,4.13.47.1.67-.62.2-.72-8-1.74-16.14-2.4-24.12-4.14-.47-.1-.67.62-.2.73Z"/><path class="cls-7" d="M291.24,203.76c-4.14,5.22-34.52-2.11-34.52-2.11L261,169.74,292.9,174Z"/><path class="cls-2" d="M266.93,177.91l18.94,2.72c.48.07.68-.66.2-.72l-18.94-2.72c-.47-.07-.67.65-.2.72Z"/><path class="cls-2" d="M266.08,182.17a31.73,31.73,0,0,0,6.28.85.38.38,0,0,0,0-.75,30.37,30.37,0,0,1-6.08-.83.38.38,0,0,0-.2.73Z"/><path class="cls-2" d="M265.21,190.83a123,123,0,0,0,19.52,2c.48,0,.48-.73,0-.75a122.84,122.84,0,0,1-19.32-2c-.47-.09-.67.64-.2.72Z"/><path class="cls-2" d="M266.17,194.42l17.32,1.85c.48.06.48-.7,0-.75l-17.32-1.85c-.48,0-.48.7,0,.75Z"/><rect class="cls-11" x="87.61" y="129.77" width="32.2" height="32.2"/><path class="cls-2" d="M92.36,136.66l22,.48c.41,0,.52-.67.1-.74l-.55-.09c-.47-.07-.67.65-.2.73l.55.09c0-.25.07-.49.1-.74l-22-.48a.38.38,0,0,0,0,.75Z"/><path class="cls-2" d="M93.09,141l21.47.27a.38.38,0,0,0,.19-.7l-.36-.26c-.39-.28-.76.37-.37.65l.35.26.19-.7-21.47-.27a.38.38,0,0,0,0,.75Z"/><path class="cls-2" d="M92.85,144.13q6.09.27,12.2,0c.48,0,.48-.77,0-.75q-6.1.27-12.2,0c-.48,0-.48.73,0,.75Z"/><path class="cls-2" d="M93.46,154.58a159.22,159.22,0,0,0,20.25.75.38.38,0,0,0,.19-.7l-.36-.22a.37.37,0,0,0-.38.64l.36.23.19-.7a159.22,159.22,0,0,1-20.25-.75c-.48-.05-.47.7,0,.75Z"/><rect class="cls-11" x="367.01" y="178.99" width="32.2" height="32.2"/><path class="cls-2" d="M371.76,185.88l22,.48c.41,0,.53-.66.1-.73l-.55-.09c-.47-.08-.67.64-.2.72l.55.09c0-.25.07-.49.1-.74l-22-.48a.38.38,0,0,0,0,.75Z"/><path class="cls-2" d="M372.5,190.18l21.46.26a.38.38,0,0,0,.19-.7l-.35-.26c-.39-.28-.77.37-.38.65l.35.26.19-.7-21.46-.26a.38.38,0,0,0,0,.75Z"/><path class="cls-2" d="M372.25,193.35q6.11.28,12.2,0c.48,0,.48-.78,0-.75q-6.1.27-12.2,0c-.48,0-.48.73,0,.75Z"/><path class="cls-2" d="M372.86,203.8a155.62,155.62,0,0,0,20.25.75.37.37,0,0,0,.19-.69l-.36-.23c-.41-.25-.79.4-.38.65l.37.22.18-.7a155.62,155.62,0,0,1-20.25-.75c-.48-.05-.47.71,0,.75Z"/><path class="cls-2" d="M331.15,65.09a190.7,190.7,0,0,0,22.28-1.44c.47-.06.48-.81,0-.75a190.7,190.7,0,0,1-22.28,1.44.38.38,0,0,0,0,.75Z"/><path class="cls-2" d="M331.58,68.87a97.73,97.73,0,0,0,12,0c.48,0,.48-.78,0-.75a97.73,97.73,0,0,1-12,0c-.49,0-.49.72,0,.75Z"/><path class="cls-2" d="M331.47,74.47A123.46,123.46,0,0,0,353.22,74c.48-.06.48-.81,0-.75a123.46,123.46,0,0,1-21.75.46c-.48,0-.48.72,0,.75Z"/><path class="cls-2" d="M332,88a192.29,192.29,0,0,0,23.13-1.58c.47-.07.48-.82,0-.75A192.29,192.29,0,0,1,332,87.25a.38.38,0,0,0,0,.75Z"/><path class="cls-11" d="M133.94,259.21c-15.72,7.51-39.12,4.19-39.12,4.19,4.58-7.4,2.53-34.53,2.53-34.53h32.2Z"/><path class="cls-2" d="M102.49,235.48A188.54,188.54,0,0,0,124.77,234c.47-.06.48-.81,0-.75a188.54,188.54,0,0,1-22.28,1.44.38.38,0,0,0,0,.75Z"/><path class="cls-2" d="M102.92,239.27a99.76,99.76,0,0,0,12,0c.48,0,.49-.78,0-.75a99.76,99.76,0,0,1-12,0c-.48,0-.48.72,0,.75Z"/><rect class="cls-9" x="205.66" y="220.1" width="32.2" height="32.2" transform="translate(-21.54 22.25) rotate(-5.48)"/><path class="cls-7" d="M208.92,228l24.16-1.57c.48,0,.48-.79,0-.75l-24.16,1.57c-.48,0-.48.78,0,.75Z"/><path class="cls-7" d="M210.17,230.58l16.8-1.53c.47,0,.48-.79,0-.75l-16.8,1.53c-.48,0-.48.79,0,.75Z"/><path class="cls-7" d="M210.16,235.21a151.83,151.83,0,0,0,17.06-.75c.48-.05.48-.8,0-.75a151.83,151.83,0,0,1-17.06.75.38.38,0,0,0,0,.75Z"/><path class="cls-7" d="M211.16,247.25l23.91-1.77c.48,0,.48-.79,0-.75l-23.91,1.77c-.48,0-.48.79,0,.75Z"/><path class="cls-7" d="M212.4,249.94l9.34-.75c.48,0,.49-.79,0-.75l-9.34.75c-.47,0-.48.79,0,.75Z"/><path class="cls-7" d="M76.31,74.42q8.32.67,16.69.65v-.75l-.51.05c-.48,0-.48.8,0,.75l.51-.05a.38.38,0,0,0,0-.75q-8.35,0-16.69-.65c-.48,0-.48.71,0,.75Z"/><path class="cls-7" d="M76.72,78.36a108.32,108.32,0,0,0,15.9.71v-.75l-.53,0c-.48,0-.48.77,0,.75l.53,0c.48,0,.49-.77,0-.75a108.32,108.32,0,0,1-15.9-.71c-.48,0-.47.7,0,.75Z"/><path class="cls-7" d="M76.62,89.62A147.91,147.91,0,0,0,92.49,91a.38.38,0,0,0,0-.75,144,144,0,0,1-15.67-1.34c-.47-.06-.68.66-.2.73Z"/><path class="cls-7" d="M76.37,93.23a101.25,101.25,0,0,0,17,.88c.48,0,.48-.77,0-.75a98.89,98.89,0,0,1-16.85-.86c-.47-.06-.68.66-.2.73Z"/><rect class="cls-7" x="67.73" y="72.23" width="6.07" height="6.07"/><rect class="cls-7" x="67.73" y="87.14" width="6.07" height="6.07" transform="translate(5.6 -4.13) rotate(3.48)"/><path class="cls-8" d="M222.36,200.43l-40.11-3.32c6-3.48,4.91-31.88,4.91-31.88h35.2Z"/><path class="cls-7" d="M198.63,174.12q8.33.67,16.68.66V174l-.51.05c-.47,0-.48.8,0,.75l.51-.05c.47-.05.49-.75,0-.75q-8.35,0-16.68-.66c-.48,0-.48.71,0,.75Z"/><path class="cls-7" d="M199,178.07a108.45,108.45,0,0,0,15.91.7V178l-.53,0c-.48,0-.49.78,0,.75l.53,0a.38.38,0,0,0,0-.75,108.45,108.45,0,0,1-15.91-.7c-.47-.06-.47.69,0,.75Z"/><path class="cls-7" d="M198.93,189.32a145.38,145.38,0,0,0,15.87,1.36c.48,0,.48-.73,0-.75a144.4,144.4,0,0,1-15.67-1.33c-.47-.07-.67.65-.2.72Z"/><path class="cls-7" d="M198.68,192.93a99.2,99.2,0,0,0,17,.88.38.38,0,0,0,0-.75,98.88,98.88,0,0,1-16.85-.85c-.47-.07-.67.65-.2.72Z"/><rect class="cls-7" x="190.04" y="171.94" width="6.07" height="6.07"/><rect class="cls-7" x="190.04" y="186.85" width="6.07" height="6.07" transform="translate(11.87 -11.36) rotate(3.48)"/><path class="cls-8" d="M191,174.75l1.43,1.47c.22.22.45.54.78.62a.73.73,0,0,0,.77-.43c.38-.68.68-1.41,1-2.12.1-.21.19-.42.29-.64a.39.39,0,0,0-.13-.51.39.39,0,0,0-.52.14l-.63,1.38c-.15.33-.31.66-.47,1-.06.13-.13.27-.2.4l0,.07s-.06-.06,0,0,.11,0,.1,0l-.06-.05c-.11-.1-.21-.21-.32-.32l-1.48-1.52c-.33-.35-.86.18-.53.53Z"/><path class="cls-8" d="M190.72,189.35,192,191c.18.24.35.56.64.68a.7.7,0,0,0,.85-.31c.47-.63.86-1.33,1.27-2l.38-.61a.38.38,0,0,0-.65-.38l-.79,1.28-.59.94c-.08.12-.17.23-.24.36s-.09,0,0,0,0,0,0,0a.48.48,0,0,0-.09-.11l-.15-.21-1.3-1.71a.4.4,0,0,0-.52-.13.38.38,0,0,0-.13.51Z"/><path class="cls-7" d="M262.84,71.27l20.46-2.1c.48,0,.48-.8,0-.75l-20.46,2.1c-.47,0-.48.8,0,.75Z"/><path class="cls-7" d="M262.65,75q11.14-1.29,22.35-2c0-.25-.07-.49-.1-.74l-.58.21c-.46.16-.26.88.2.72l.58-.2c.37-.14.35-.77-.1-.74q-11.21.67-22.35,2c-.47.06-.48.81,0,.75Z"/><path class="cls-7" d="M263.73,78.7a143.52,143.52,0,0,0,18.64-1.37c.48-.07.28-.79-.2-.73A140.45,140.45,0,0,1,263.73,78a.38.38,0,0,0,0,.75Z"/><path class="cls-7" d="M266.31,84.75l14.19-1.3c.48,0,.49-.8,0-.75L266.31,84c-.48,0-.48.8,0,.75Z"/><path class="cls-7" d="M353.74,235c8.38,1,16.86.73,25.27,1.31.48,0,.48-.72,0-.75-8.41-.58-16.89-.28-25.27-1.31-.48-.06-.47.69,0,.75Z"/><path class="cls-7" d="M353.77,241.45,379,242.86c.49,0,.48-.72,0-.75l-25.24-1.41c-.48,0-.48.73,0,.75Z"/><rect class="cls-12" x="53.7" y="220.43" width="32.2" height="32.2" transform="translate(-22.27 7.75) rotate(-5.48)"/><path class="cls-7" d="M57.1,228.12c7.82-.68,15.68-.74,23.47-1.74.48-.07.48-.82,0-.75-7.79,1-15.65,1.06-23.47,1.74-.48,0-.49.79,0,.75Z"/><path class="cls-7" d="M57.79,232.53c6.37-.59,12.75.33,19.11-.47.48-.05.48-.81,0-.75-6.36.8-12.74-.12-19.11.47-.48.05-.48.8,0,.75Z"/><path class="cls-7" d="M59,247.43l23.52-2.25c.48-.05.48-.8,0-.75L59,246.68c-.48,0-.49.8,0,.75Z"/><rect class="cls-8" x="125.16" y="75.93" width="4.32" height="11.38" transform="translate(-9.73 17.67) rotate(-7.65)"/><rect class="cls-8" x="407.73" y="152.6" width="4.32" height="11.38"/><rect class="cls-8" x="335.62" y="129.87" width="4.32" height="11.38"/><rect class="cls-8" x="247.21" y="226.3" width="4.32" height="11.38"/><rect class="cls-8" x="269.81" y="53.72" width="4.32" height="11.38" transform="translate(-6.41 60.7) rotate(-12.59)"/><rect class="cls-8" x="147.13" y="166.89" width="4.32" height="11.38" transform="translate(65.39 -39.63) rotate(19.29)"/></g></g></svg>